<svg xmlns="http://www.w3.org/2000/svg" width="32.68" height="32.68" viewBox="0 0 32.68 32.68">
  <path id="close-circle-svgrepo-com" d="M34.68,18.34A16.34,16.34,0,1,1,18.34,2,16.34,16.34,0,0,1,34.68,18.34ZM13.388,13.388a1.226,1.226,0,0,1,1.733,0l3.218,3.218,3.218-3.218a1.226,1.226,0,1,1,1.733,1.733L20.073,18.34l3.218,3.218a1.226,1.226,0,1,1-1.733,1.733L18.34,20.073l-3.218,3.218a1.225,1.225,0,0,1-1.733-1.733l3.218-3.218-3.218-3.218A1.225,1.225,0,0,1,13.388,13.388Z" transform="translate(-2 -2)" fill="red" fill-rule="evenodd"/>
</svg>
